<svg width="29" height="13" viewBox="0 0 29 13" fill="none" xmlns="http://www.w3.org/2000/svg">
<path d="M22.475 2.76036e-05C20.735 2.76036e-05 19.0917 0.676606 17.9196 1.84854L9.425 9.38756C8.65167 10.1608 7.62458 10.5836 6.525 10.5836C4.26542 10.5836 2.41667 8.7593 2.41667 6.50001C2.41667 4.24073 4.26542 2.41638 6.525 2.41638C7.62458 2.41638 8.65167 2.83924 9.47333 3.6608L10.8388 4.86898L12.6875 3.25002L11.1408 1.90895C10.5357 1.30163 9.81626 0.82024 9.02399 0.492589C8.23172 0.164939 7.38236 -0.00247294 6.525 2.76036e-05C2.92417 2.76036e-05 0 2.92381 0 6.50001C0 10.0762 2.92417 13 6.525 13C8.265 13 9.90833 12.3234 11.0804 11.1515L19.575 3.61247C20.3483 2.83924 21.3754 2.41638 22.475 2.41638C24.7346 2.41638 26.5833 4.24073 26.5833 6.50001C26.5833 8.7593 24.7346 10.5836 22.475 10.5836C21.3875 10.5836 20.3483 10.1608 19.5267 9.33923L18.125 8.11897L16.3125 9.73793L17.8592 11.0911C18.4659 11.6954 19.1859 12.174 19.978 12.4995C20.7701 12.8249 21.6186 12.9909 22.475 12.9879C26.0758 12.9879 29 10.0762 29 6.50001C29 2.87549 26.0758 2.76036e-05 22.475 2.76036e-05Z" fill="#02E4C0"/>
</svg>
