<svg width="25" height="24" viewBox="0 0 25 24" fill="none" xmlns="http://www.w3.org/2000/svg">
<path d="M7.2275 13.8016L10.7797 9.97481L3.01008 1.61813C2.40759 0.969072 1.36579 1.14486 0.989231 1.98323C0.0980497 3.99803 0.424398 6.47258 1.96827 8.14933L7.2275 13.8016ZM15.7377 11.3541C17.6581 12.3141 20.3567 11.638 22.3525 9.48802C24.7499 6.90529 25.2143 3.20022 23.3692 1.21247C21.5366 -0.76176 18.0974 -0.274963 15.6874 2.30776C13.6917 4.45778 13.0641 7.36504 13.9553 9.43393L2.58332 21.685C2.34862 21.9378 2.21678 22.2807 2.21678 22.6383C2.21678 22.9959 2.34862 23.3388 2.58332 23.5916C2.81801 23.8444 3.13632 23.9865 3.46822 23.9865C3.80012 23.9865 4.11843 23.8444 4.35313 23.5916L12.1227 15.2484L19.8798 23.6051C19.996 23.7303 20.1339 23.8296 20.2858 23.8974C20.4376 23.9651 20.6003 24 20.7647 24C20.929 24 21.0917 23.9651 21.2436 23.8974C21.3954 23.8296 21.5334 23.7303 21.6496 23.6051C21.7658 23.4799 21.858 23.3313 21.9209 23.1677C21.9837 23.0042 22.0161 22.8289 22.0161 22.6518C22.0161 22.4748 21.9837 22.2995 21.9209 22.1359C21.858 21.9723 21.7658 21.8237 21.6496 21.6985L13.8925 13.3418L15.7377 11.3541Z" fill="#02E4C0"/>
</svg>
