<svg width="26" height="26" viewBox="0 0 26 26" fill="none" xmlns="http://www.w3.org/2000/svg">
<path d="M10.803 11.609C12.129 13.741 11.934 16.25 10.348 17.264C8.762 18.252 6.396 17.329 5.057 15.197C3.731 13.065 3.939 10.53 5.525 9.542C7.111 8.554 9.477 9.477 10.803 11.609ZM13 20.475C15.6 20.475 16.25 19.5 16.25 19.5C16.25 19.5 15.6 22.1 13 22.1C10.4 22.1 9.75 19.539 9.75 19.5C9.75 19.5 10.4 20.475 13 20.475ZM20.475 9.542C22.061 10.53 22.269 13.065 20.943 15.197C19.604 17.329 17.238 18.252 15.652 17.264C14.066 16.25 13.871 13.741 15.197 11.609C16.523 9.477 18.889 8.554 20.475 9.542ZM13 23.4C16.25 23.4 23.4 16.718 23.4 11.7C23.4 6.682 18.733 2.6 13 2.6C7.267 2.6 2.6 6.682 2.6 11.7C2.6 16.718 9.75 23.4 13 23.4ZM13 0C20.15 0 26 5.252 26 11.7C26 17.004 18.616 26 13 26C7.384 26 0 17.004 0 11.7C0 5.252 5.85 0 13 0Z" fill="#02E4C0"/>
</svg>
